<svg width="34" height="34" viewBox="0 0 34 34" fill="none" xmlns="http://www.w3.org/2000/svg">
<path d="M8.70125 18.9617L14.6259 25.0652L12.2577 27.5059L14.6293 29.9483L12.2594 32.389L8.1113 28.1169L3.36987 33L1 30.5593L5.74142 25.6745L1.59331 21.4041L3.96318 18.9634L6.33305 21.4024L8.70125 18.9617ZM1.91678 1L7.8599 1.00518L27.6653 21.4041L30.0368 18.9634L32.4084 21.4041L28.2603 25.6762L33 30.5593L30.6301 33L25.8887 28.1169L21.7423 32.389L19.3707 29.9483L21.7406 27.5059L1.92013 7.09483L1.91678 1ZM26.1468 1L32.0849 1.00518L32.0883 7.0862L25.2954 14.0803L19.369 7.97859L26.1468 1Z" stroke="#B3AF90"/>
</svg>
