<svg width="18" height="18" viewBox="0 0 18 18" fill="none" xmlns="http://www.w3.org/2000/svg">
<path d="M4.33195 10.1035L7.66459 13.5367L6.33248 14.9095L7.66648 16.2834L6.33342 17.6563L4.0001 15.2532L1.33305 18L0 16.6271L2.66705 13.8794L0.333735 11.4773L1.66679 10.1044L2.99984 11.4763L4.33195 10.1035ZM0.515686 0L3.85869 0.0029128L14.9992 11.4773L16.3332 10.1044L17.6672 11.4773L15.3339 13.8804L18 16.6271L16.6669 18L13.9999 15.2532L11.6675 17.6563L10.3335 16.2834L11.6666 14.9095L0.517572 3.42834L0.515686 0ZM14.1451 0L17.4853 0.0029128L17.4871 3.42349L13.6662 7.35768L10.3326 3.92545L14.1451 0Z" fill="url(#paint0_linear_2070_1094)"/>
<defs>
<linearGradient id="paint0_linear_2070_1094" x1="9" y1="0" x2="9" y2="18" gradientUnits="userSpaceOnUse">
<stop stop-color="#FFF496"/>
<stop offset="1" stop-color="#CABE52"/>
</linearGradient>
</defs>
</svg>
