<?xml version="1.0" encoding="UTF-8"?>
<svg id="a" data-name="Layer 1" xmlns="http://www.w3.org/2000/svg" viewBox="0 0 32 17.46">
  <defs>
    <style>
      .b {
        fill: #636363;
      }

      .b, .c, .d, .e, .f {
        stroke-width: 0px;
      }

      .c {
        fill: #373737;
      }

      .d {
        fill: gray;
      }

      .e {
        fill: #fff;
      }

      .f {
        fill: #fb871b;
      }
    </style>
  </defs>
  <path class="d" d="M10.15,10.15c-.77.77-1.38,1.68-1.8,2.68-.41,1.01-.63,2.08-.63,3.17H0c0-2.1.41-4.18,1.22-6.12.8-1.94,1.98-3.71,3.47-5.19l5.46,5.46Z"/>
  <path class="b" d="M16,0v7.72c-1.09,0-2.16.22-3.17.63-1,.42-1.91,1.03-2.68,1.8l-5.46-5.46c1.48-1.49,3.25-2.67,5.19-3.47,1.94-.81,4.02-1.22,6.12-1.22Z"/>
  <path class="c" d="M32,16h-7.72c0-1.09-.22-2.16-.63-3.17-.42-1-1.03-1.91-1.8-2.68l5.46-5.46c.29.29.56.58.82.89,1.85,2.15,3.09,4.75,3.6,7.52.08.41.14.82.18,1.23.06.55.09,1.11.09,1.67Z"/>
  <path class="f" d="M27.31,4.69l-5.46,5.46c-.77-.77-1.68-1.38-2.68-1.8-1.01-.41-2.08-.63-3.17-.63V0c2.1,0,4.18.41,6.12,1.22,1.94.8,3.71,1.98,5.19,3.47Z"/>
  <path class="e" d="M20.57,2.61s0,0-.01.01c0,0-.08.09-.08.09l-1.01,1.17c-.65.76-1.53,1.8-2.43,2.86-.9,1.07-1.83,2.17-2.57,3.08-.92,1.13-1.4,1.75-1.61,2.1-1.04,1.69-.49,3.92,1.23,4.98s3.96.54,5-1.15c.21-.34.55-1.06,1.14-2.39.48-1.07,1.05-2.4,1.59-3.68.55-1.29,1.07-2.53,1.46-3.46l.59-1.43s.05-.11.05-.11c0-.01,0-.03.01-.04.35-.9.01-1.92-.82-2.43s-1.91-.35-2.55.39Z"/>
</svg>