<?xml version="1.0" encoding="UTF-8"?>
<svg id="a" data-name="Layer 1" xmlns="http://www.w3.org/2000/svg" viewBox="0 0 32 17.45">
  <defs>
    <style>
      .b {
        fill: #373737;
      }

      .b, .c, .d, .e, .f {
        stroke-width: 0px;
      }

      .c {
        fill: #f8e42b;
      }

      .d {
        fill: gray;
      }

      .e {
        fill: #fff;
      }

      .f {
        fill: #4d4d4d;
      }
    </style>
  </defs>
  <path class="d" d="M10.15,10.15c-.77.77-1.38,1.68-1.8,2.68-.41,1.01-.63,2.08-.63,3.17H0c0-2.1.41-4.18,1.22-6.12.8-1.94,1.98-3.71,3.47-5.19l5.46,5.46Z"/>
  <path class="f" d="M27.31,4.69l-5.46,5.46c-.77-.77-1.68-1.38-2.68-1.8-1.01-.41-2.08-.63-3.17-.63V0c2.1,0,4.18.41,6.12,1.22,1.94.8,3.71,1.98,5.19,3.47Z"/>
  <path class="b" d="M32,16h-7.72c0-1.09-.22-2.16-.63-3.17-.42-1-1.03-1.91-1.8-2.68l5.46-5.46c.29.29.56.58.82.89,1.85,2.15,3.09,4.75,3.6,7.52.08.41.14.82.18,1.23.06.55.09,1.11.09,1.67Z"/>
  <path class="c" d="M16,0v7.72c-1.09,0-2.16.22-3.17.63-1,.42-1.91,1.03-2.68,1.8l-5.46-5.46c1.48-1.49,3.25-2.67,5.19-3.47,1.94-.81,4.02-1.22,6.12-1.22Z"/>
  <path class="e" d="M8.81,4.09s0,.01,0,.02c0,0,.04.11.04.11l.48,1.47c.31.95.74,2.24,1.18,3.56.45,1.32.91,2.69,1.3,3.8.48,1.37.77,2.11.95,2.47.9,1.76,3.1,2.45,4.89,1.53s2.52-3.1,1.61-4.87c-.18-.36-.62-1.02-1.45-2.22-.67-.97-1.51-2.14-2.32-3.27-.81-1.13-1.61-2.23-2.2-3.04l-.91-1.25s-.07-.1-.07-.1c0-.01-.02-.02-.03-.03-.59-.77-1.63-1.01-2.5-.56s-1.29,1.45-.99,2.38Z"/>
</svg>