<?xml version="1.0" encoding="UTF-8"?>
<svg id="a" data-name="Layer 1" xmlns="http://www.w3.org/2000/svg" viewBox="0 0 32 17.45">
  <defs>
    <style>
      .b {
        fill: #e61b28;
      }

      .b, .c, .d, .e, .f {
        stroke-width: 0px;
      }

      .c {
        fill: #636363;
      }

      .d {
        fill: gray;
      }

      .e {
        fill: #fff;
      }

      .f {
        fill: #4d4d4d;
      }
    </style>
  </defs>
  <path class="d" d="M10.15,10.15c-.77.77-1.38,1.68-1.8,2.68-.41,1.01-.63,2.08-.63,3.17H0c0-2.1.41-4.18,1.22-6.12.8-1.94,1.98-3.71,3.47-5.19l5.46,5.46Z"/>
  <path class="c" d="M16,0v7.72c-1.09,0-2.16.22-3.17.63-1,.42-1.91,1.03-2.68,1.8l-5.46-5.46c1.48-1.49,3.25-2.67,5.19-3.47,1.94-.81,4.02-1.22,6.12-1.22Z"/>
  <path class="f" d="M27.31,4.69l-5.46,5.46c-.77-.77-1.68-1.38-2.68-1.8-1.01-.41-2.08-.63-3.17-.63V0c2.1,0,4.18.41,6.12,1.22,1.94.8,3.71,1.98,5.19,3.47Z"/>
  <path class="b" d="M32,16h-7.72c0-1.09-.22-2.16-.63-3.17-.42-1-1.03-1.91-1.8-2.68l5.46-5.46c.29.29.56.58.82.89,1.85,2.15,3.09,4.75,3.6,7.52.08.41.14.82.18,1.23.06.55.09,1.11.09,1.67Z"/>
  <path class="e" d="M27.92,11.82s-.01,0-.02,0c0,0-.11-.02-.12-.02l-1.53-.24c-.99-.16-2.33-.36-3.71-.57-1.38-.21-2.81-.42-3.97-.57-1.44-.19-2.23-.28-2.63-.28-1.98,0-3.59,1.64-3.59,3.66s1.61,3.66,3.59,3.66c.4,0,1.19-.08,2.63-.28,1.17-.16,2.59-.37,3.97-.57,1.38-.21,2.72-.42,3.71-.57l1.53-.24s.12-.02.12-.02c.01,0,.03,0,.04,0,.95-.17,1.64-.99,1.64-1.97s-.7-1.81-1.67-1.97Z"/>
</svg>